<?xml version="1.0" standalone="yes"?>
<svg xmlns="http://www.w3.org/2000/svg" width="176" height="82">
<path style="fill:#dd3a58; stroke:none;" d="M0 0L0 81C11.3619 80.2375 10.1752 71.7705 16.3171 65.3904C22.13 59.3521 31.1458 58.0009 39 58L40 48C54.679 54.7125 70.4657 56.0696 87 53L87 64C91.5415 59.5526 89.8072 52.6175 89.8804 46.7145C90.0737 31.1204 87.1698 15.3851 87 0L51 0C50.1392 5.5326 45.0928 7.07576 43.5139 12.0432C40.9531 20.0997 40.6355 39.0005 43 47C33.0981 47.4008 12.678 52.5317 5.43364 43.8665C-2.44554 34.4419 4.65042 11.5644 3 0L0 0z"/>
<path style="fill:#dec309; stroke:none;" d="M3 0C3.4881 10.2842 3 20.6978 3 31C3 35.4795 2.14351 41.1296 5.43364 44.7215C12.2367 52.1483 33.9875 47.9381 43 47C41.0098 38.6367 40.9469 21.3167 43.5139 13.0154C45.1989 7.56612 50.5298 6.18128 51 0L3 0z"/>
<path style="fill:#2ca5c1; stroke:none;" d="M87 0L88 9L89 9L87 0z"/>
<path style="fill:#182623; stroke:none;" d="M88 0L88 7L89 7L88 0z"/>
<path style="fill:#dec309; stroke:none;" d="M89 0C89.8775 10.5159 88.9959 21.4261 89 32C89.0018 36.5571 88.461 42.0429 92.2785 45.3472C100.123 52.1375 119.376 47 129 47C126.884 38.1128 125.732 21.6137 129.148 13.0039C131.272 7.65198 136.529 6.09797 137 0L89 0z"/>
<path style="fill:#2ca5c1; stroke:none;" d="M137 0C136.127 5.52622 131.141 7.07318 129.148 12.0154C125.782 20.3612 126.481 38.4787 129 47L114 47L114 48C123.469 48 127.57 51.6486 136.004 53.6057C141.917 54.978 148.953 54 155 54C158.877 54 168.346 52.1823 171.397 54.7731C175.465 58.2286 173.093 72.409 172 77L176 78L176 0L137 0M89 3L90 4L89 3M89 5L90 6L89 5z"/>
<path style="fill:#fafaf6; stroke:none;" d="M22 30C27.8496 34.8457 28.6492 38.9705 37 39L32.3364 26.4244L37 15C28.7874 15.029 28.2881 19.459 22 23C22 20.1969 21.3887 0.331383 14.0278 9.60339C11.2194 13.1409 13 22.6853 13 27C13 29.9073 12.0869 34.9519 14.0278 37.3966C19.3232 44.0668 21.9877 33.487 22 30M99 8C97.74 12.2627 98 16.5736 98 21C98 25.4044 96.6226 32.6565 98.6034 36.6821C100.339 40.2084 106.812 39.0012 110 39C114.447 38.9983 119.315 39.4312 122.566 35.7716C126.896 30.8977 127.069 13.6563 120.891 10.179C115.19 6.96992 105.47 9.20114 99 8M59 15L59 22L62 22L62 38L59 38L59 45L75 44L75 39L71 38L71 22L75 21L75 16L59 15z"/>
<path style="fill:#dec309; stroke:none;" d="M74 15L75 16L74 15z"/>
<path style="fill:#fafaf6; stroke:none;" d="M157 34L157 38L140 38L140 45C146.007 45 156.553 47.0299 161.867 43.9722C167.379 40.8005 167.313 30.5908 161.867 27.4568C157.904 25.1767 152.39 26 148 26L148 22L163 22L163 15C157.363 15 146.905 12.9929 142.228 16.6034C137.524 20.235 138.018 29.4842 143.214 32.4275C147.211 34.6921 152.589 34 157 34z"/>
<path style="fill:#dec309; stroke:none;" d="M58 16L58 21L59 21L58 16M107 16L107 32C120.438 31.9525 120.614 16.0105 107 16M74 17L74 20L75 20L74 17M58 39L58 44L59 44L58 39M74 40L74 43L75 43L74 40M74 44L75 45L74 44z"/>
<path style="fill:#182623; stroke:none;" d="M90 44L91 49L126 50L125 62L116 56L106 59L107 57L104 58L105 56L87 64L87 53C76.4237 54.3366 61.4112 56.3928 51 53.5664C46.9317 52.4619 44.0973 49.1383 40 48L39 58C31.0739 58 22.4613 58.8058 16.3171 64.6373C9.98067 70.6514 11.0754 79.5196 0 81L0 82L176 82L176 78L172 77C173.207 72.9181 175.449 56.8874 171.397 54.1173C167.05 51.1464 151.505 54.0004 146 54C137.569 53.9995 133.378 49.3135 125.961 48.1474C113.859 46.2447 100.744 51.3794 90 44z"/>
<path style="fill:#2ca5c1; stroke:none;" d="M91 45L92 46L91 45M93 46L94 47L93 46M90 47L90 61L105 56L104 58L107 57L106 59L107 59L116 56C116.879 60.2308 121.035 61.2926 125 62L126 50C116.72 47.2571 100.511 47.3906 91 49L92 47L90 47M95 47L96 48L95 47z"/>
<path style="fill:#182623; stroke:none;" d="M89 48L90 49L89 48M97 56L98 57L97 56M108 56L109 57L108 56M95 57L96 58L95 57M117 57L118 58L117 57M93 58L94 59L93 58M119 58L120 59L119 58M91 59L92 60L91 59M121 59L122 60L121 59z"/>
<path style="fill:#2ca5c1; stroke:none;" d="M135 60L136 61L135 60M133 61L134 62L133 61M147 61L148 62L147 61M130 62L131 63L130 62M149 62L150 63L149 62M151 63L152 64L151 63M153 64L154 65L153 64M155 65L156 66L155 65M157 66L159 68L157 66M161 72L161 73L164 74L161 72M165 74L167 76L165 74M168 76L169 77L168 76z"/>
</svg>
